HIERARCHY
ROOT Hips
{
  OFFSET 35.6841 98.9337 13.553
  CHANNELS 6 Xposition Yposition Zposition Zrotation Xrotation Yrotation
  JOINT ToSpine
  {
    OFFSET -0.0105055 1.38907 -7.13956
    CHANNELS 3 Zrotation Xrotation Yrotation
    JOINT Spine
    {
      OFFSET 0.0105055 10 1
      CHANNELS 3 Zrotation Xrotation Yrotation
      JOINT Spine1
      {
        OFFSET 0 12 1.60637
        CHANNELS 3 Zrotation Xrotation Yrotation
        JOINT Neck
        {
          OFFSET 0 27 2.26658
          CHANNELS 3 Zrotation Xrotation Yrotation
          JOINT Head
          {
            OFFSET 0 9 2.12705
            CHANNELS 3 Zrotation Xrotation Yrotation
            End Site
            {
              OFFSET 0 11 2
            }
          }
        }
        JOINT LeftShoulder
        {
          OFFSET 8 19.6109 2.86452
          CHANNELS 3 Zrotation Xrotation Yrotation
          JOINT LeftArm
          {
            OFFSET 12 1 0.681055
            CHANNELS 3 Zrotation Xrotation Yrotation
            JOINT LeftForeArm
            {
              OFFSET 19 0 -1.52608
              CHANNELS 3 Zrotation Xrotation Yrotation
              JOINT LeftHand
              {
                OFFSET 23 0 0
                CHANNELS 3 Zrotation Xrotation Yrotation
                End Site
                {
                  OFFSET 10 0 0
                }
              }
            }
          }
        }
        JOINT RightShoulder
        {
          OFFSET -8 19.6109 2.86452
          CHANNELS 3 Zrotation Xrotation Yrotation
          JOINT RightArm
          {
            OFFSET -12 1 0.681055
            CHANNELS 3 Zrotation Xrotation Yrotation
            JOINT RightForeArm
            {
              OFFSET -19 0 -1.52608
              CHANNELS 3 Zrotation Xrotation Yrotation
              JOINT RightHand
              {
                OFFSET -23 0 0
                CHANNELS 3 Zrotation Xrotation Yrotation
                End Site
                {
                  OFFSET -10 0 0
                }
              }
            }
          }
        }
      }
    }
  }
  JOINT LeftUpLeg
  {
    OFFSET 9 -7.17245 0
    CHANNELS 3 Zrotation Xrotation Yrotation
    JOINT LeftLeg
    {
      OFFSET 0 -44.1113 0
      CHANNELS 3 Zrotation Xrotation Yrotation
      JOINT LeftFoot
      {
        OFFSET 0 -36.1829 0
        CHANNELS 3 Zrotation Xrotation Yrotation
        JOINT LeftToeBase
        {
          OFFSET 0 -4.84184 13
          CHANNELS 3 Zrotation Xrotation Yrotation
          End Site
          {
            OFFSET 0 1 6
          }
        }
      }
    }
  }
  JOINT RightUpLeg
  {
    OFFSET -9 -7.17245 0
    CHANNELS 3 Zrotation Xrotation Yrotation
    JOINT RightLeg
    {
      OFFSET 0 -44.0551 0
      CHANNELS 3 Zrotation Xrotation Yrotation
      JOINT RightFoot
      {
        OFFSET 0 -36.1469 0
        CHANNELS 3 Zrotation Xrotation Yrotation
        JOINT RightToeBase
        {
          OFFSET 0 -4.92256 13
          CHANNELS 3 Zrotation Xrotation Yrotation
          End Site
          {
            OFFSET 0 1 6
          }
        }
      }
    }
  }
}
MOTION
Frames:	20
Frame Time:	0.0333333
40.5686 97.8611 12.1381 3.03014 -0.662904 -5.30538 0 0 0 -3.01181 6.93392 0.80525 -0.0426219 14.204 0.480363 0.417676 0.786519 -9.08768 -6.11318 -12.0584 -8.27014 -33.1764 7.72366 -16.0255 -31.7467 43.0891 -10.614 -11.0911 -18.5526 -20.9268 9.07535 0.069351 0.86615 24.1453 5.13954 13.3014 40.238 1.18673 51.638 -48.4459 -16.6603 104.259 -2.65925 0.303076 -12.8922 -5.73097 -0.198402 5.43961 -0.153726 9.39757 7.60966 6.22038 -4.8099 0.260785 -1.94658 -2.87209 3.8208 -10.7629 -8.21303 -12.6895 0.000721128 26.1498 18.0258 -0.604464 -12.0134 -0.0635973 -0.405856 -4.91089 -0.0869098 
40.8666 97.9446 11.8802 2.84206 0.716246 -4.88719 0 0 0 -2.9439 7.17825 0.901139 0.24129 14.2447 0.555057 1.12877 -0.300587 -9.30763 -6.50871 -12.2482 -8.22086 -32.8195 7.50705 -15.6593 -31.0485 42.5118 -12.6652 -11.2353 -17.0599 -19.744 9.42908 0.0815247 0.990035 24.5099 5.21282 13.3462 40.4775 -0.0391449 52.9032 -47.2406 -15.2723 103.689 -1.95439 0.233053 -13.5678 -5.70068 -1.75231 5.06074 -0.0368039 9.01485 7.80347 7.1085 -4.25953 0.264968 -1.72784 -2.73574 3.32952 -10.667 -9.5134 -13.4585 0.0258187 25.5209 17.9907 -0.75362 -11.1822 -0.0742245 -0.341138 -5.13308 -0.355128 
41.1395 97.9724 11.6087 2.55616 2.09725 -3.78561 0 0 0 -2.60882 7.41501 0.67245 0.554098 14.0581 0.282525 1.30169 -1.07382 -9.49058 -6.37843 -12.3737 -8.36839 -32.7567 7.46311 -15.579 -30.3867 41.5204 -14.4118 -11.5939 -15.5782 -18.3648 10.0043 0.0842944 0.961456 24.7774 5.33359 13.593 40.7353 -1.11207 53.5468 -46.694 -14.9037 103.627 -2.58428 0.296095 -13.0753 -5.4901 -3.66059 4.71453 0.0350784 9.49335 6.81012 7.60221 -4.09187 0.272145 -1.8448 -2.49964 3.66175 -10.5176 -10.3088 -14.3565 0.122873 24.4399 17.6024 0.279414 -11.1369 0.0276343 -0.448486 -4.39993 0.198486 
41.3051 98.0331 11.4462 2.24089 3.29906 -2.74294 0 0 0 -2.54447 7.74326 0.568871 1.10128 13.6771 0.0569457 1.72436 -1.89542 -9.71215 -6.4962 -12.2886 -8.4377 -32.6456 7.41827 -15.5203 -30.3739 41.5423 -15.0488 -11.3581 -14.9719 -18.3255 10.4705 0.0956601 1.04603 24.9039 5.21518 13.1534 41.1547 -1.43971 54.0786 -46.9477 -15.4079 103.94 -3.32674 0.379764 -13.0131 -5.03814 -5.23645 4.74324 -0.214154 9.84239 5.73007 7.61642 -3.79302 0.252326 -1.65235 -2.66243 3.16654 -10.0488 -10.7208 -13.8935 0.306262 22.9498 15.813 1.39267 -11.2882 0.137362 -0.548677 -3.34647 0.786088 
41.4815 98.1021 11.3989 1.82765 3.91743 -2.00496 0 0 0 -2.20522 7.87569 0.527848 1.25311 13.7561 0.00196852 2.50905 -1.65355 -10.0329 -6.83984 -13.1392 -8.56099 -32.0716 7.39183 -15.7331 -30.5986 42.0368 -15.5598 -11.7309 -16.6097 -18.7985 10.8607 0.0808818 0.850267 24.6737 5.25303 13.3869 41.8983 -2.01087 53.5829 -48.3924 -16.257 103.962 -3.45247 0.399385 -13.1814 -4.82809 -6.06814 4.56829 -0.033034 10.0201 5.3552 8.13205 -3.41747 0.243154 -1.61678 -3.05105 2.98806 -9.52867 -10.4516 -13.3025 0.575413 21.315 14.456 1.64138 -11.0725 0.160015 -0.437937 -2.90461 0.567469 
41.6833 98.1155 11.3908 1.57398 4.69811 -1.27885 0 0 0 -2.05122 8.15907 0.447257 1.55852 13.1158 -0.129053 2.66964 -1.73912 -10.078 -6.94821 -13.1655 -8.55017 -32.4029 7.49454 -15.8315 -30.3425 43.0298 -15.1341 -11.4215 -17.0216 -19.5012 10.7615 0.0785246 0.832003 25.216 5.44684 13.7164 41.8224 -2.10766 52.6328 -49.7145 -16.6951 103.685 -2.8597 0.316091 -12.6281 -4.81029 -6.9721 4.21351 0.143421 10.1125 4.73554 8.514 -3.33865 0.248658 -1.76368 -3.03071 3.34653 -9.29833 -10.4323 -13.2096 0.931069 19.8876 13.5239 1.02153 -10.3977 0.0919205 -0.263275 -3.67967 -0.181287 
41.8175 98.1942 11.3956 1.2598 5.25404 -0.897536 0 0 0 -1.74867 8.17801 0.467138 1.66652 13.0167 -0.10216 2.57134 -2.18068 -10.1628 -6.71408 -12.9422 -8.67055 -32.6063 7.46796 -15.6657 -30.0741 43.5996 -15.3374 -11.3742 -17.8454 -20.1021 10.413 0.0607609 0.66792 24.6662 5.08651 12.8692 42.6578 -2.08639 53.0501 -49.7277 -16.5729 103.586 -2.71001 0.309119 -12.9388 -4.34968 -7.59401 4.5402 -0.24541 10.1385 4.23255 8.48172 -3.00683 0.22296 -1.66509 -3.48239 2.99899 -8.85862 -10.5141 -12.0303 0.993426 18.6998 11.6835 1.87508 -9.86616 0.162204 -0.695078 -3.29325 1.24939 
41.9629 98.2348 11.4632 1.10648 5.58438 -0.699639 0 0 0 -2.19728 8.0708 0.395663 2.62894 13.0851 -0.473325 2.08654 -2.13515 -9.85803 -6.6275 -13.4167 -8.54745 -33.5851 7.49444 -15.2612 -29.5128 44.097 -15.1415 -11.2648 -18.4426 -20.7113 10.777 0.0697193 0.726225 24.7627 5.50133 14.1209 42.4333 -2.80353 51.9334 -49.5312 -16.6374 103.727 -3.4903 0.420896 -13.7611 -4.27582 -7.88368 4.5014 -0.296071 10.098 3.81767 8.57123 -2.95337 0.221125 -1.82697 -3.48227 3.39128 -8.75808 -10.5563 -11.8524 1.06951 18.2843 11.3548 2.13397 -9.77845 0.182667 -0.497814 -3.33102 0.636528 
42.1641 98.2323 11.5336 1.08122 5.70608 -0.777813 0 0 0 -1.89423 7.92175 0.312445 2.22632 13.4653 -0.432262 1.61723 -2.71984 -9.53356 -6.00214 -13.2185 -8.40397 -33.5782 7.4702 -15.2055 -29.3957 44.5216 -15.1411 -11.1981 -18.9989 -21.1936 10.9461 0.0683971 0.65824 25.3733 5.94893 15.1964 41.7894 -3.90858 51.1438 -49.0507 -16.4088 103.773 -3.46515 0.400684 -13.1844 -4.55387 -7.86862 4.15053 0.0514862 9.92945 4.2273 8.23334 -3.33919 0.240571 -1.69672 -2.74905 3.25171 -8.90154 -10.5614 -12.0903 1.19081 18.1496 11.878 2.13352 -9.59361 0.179453 -0.210112 -3.19931 -0.207733 
42.262 98.2703 11.7787 1.06376 5.44773 -1.06853 0 0 0 -2.26664 8.32969 0.716661 2.52232 13.3139 -0.130984 1.84809 -3.2369 -9.68571 -6.26357 -12.594 -8.41386 -33.2253 7.46083 -15.3483 -30.1635 43.932 -15.1273 -11.1633 -18.4858 -20.831 11.1519 0.0640361 0.677656 24.6655 5.57397 14.413 42.3756 -3.16145 51.6937 -49.6469 -16.2902 103.405 -3.7695 0.434812 -13.06 -4.56506 -7.14784 4.2864 -0.0166923 9.32358 4.41578 8.17125 -3.12717 0.223485 -1.65859 -2.85816 3.13452 -8.92355 -10.0924 -11.8075 1.15101 17.9047 11.8978 2.89485 -9.92078 0.251099 -0.375152 -2.24215 0.537095 
42.3725 98.2397 11.8689 0.955663 5.67209 -0.953471 0 0 0 -2.17691 8.33043 0.590698 2.50207 13.0084 -0.238457 1.58088 -3.12712 -9.67195 -5.82283 -12.676 -8.53081 -33.1704 7.38985 -15.1977 -30.5167 43.2848 -15.0963 -11.0115 -17.5642 -20.3968 11.0854 0.0601762 0.676589 24.6958 5.39926 13.843 42.4731 -2.82795 52.3534 -49.4239 -16.0855 103.348 -2.91993 0.297508 -11.6524 -4.52247 -7.27344 4.27429 -0.0753177 9.23916 4.40533 8.34588 -3.49307 0.254851 -1.51913 -2.5857 2.86584 -8.92089 -10.2572 -11.9518 1.21023 17.9264 11.8338 2.87534 -9.78703 0.246316 -0.397322 -2.93514 0.428812 
42.4654 98.2402 11.9839 0.821659 5.95628 -0.897116 0 0 0 -1.98198 7.91259 0.606219 2.28453 13.0606 -0.139188 1.72165 -3.15782 -9.66636 -5.90288 -12.4704 -8.46316 -33.0197 7.38965 -15.2685 -30.2444 43.6504 -15.4972 -11.2037 -17.755 -20.2893 10.7739 0.0600504 0.63327 24.9062 5.48342 13.9982 42.5458 -2.7024 52.2104 -49.1264 -16.2032 103.577 -3.48596 0.381278 -12.4981 -4.42516 -7.64163 4.26051 -0.0234513 9.56448 4.46271 8.25087 -3.72142 0.268615 -1.35792 -2.42458 2.52084 -8.83279 -10.4043 -11.9532 1.27693 17.7344 11.7803 2.70354 -9.34549 0.220956 -0.464926 -3.14422 0.582925 
42.5349 98.2699 12.227 0.814637 5.4916 -0.966458 0 0 0 -1.79844 8.24235 0.606027 1.87201 13.108 -0.0336469 1.49588 -3.36467 -9.58101 -5.72203 -12.4129 -8.45486 -32.7979 7.35721 -15.2926 -30.1332 44.1623 -15.6035 -11.187 -18.0083 -20.5054 10.8612 0.0715355 0.751516 24.4268 5.44574 14.1329 43.3211 -2.78205 51.6598 -48.0674 -16.3019 104.152 -3.46774 0.367984 -12.0943 -4.3882 -6.96997 4.51551 -0.198973 9.54765 4.08214 8.1149 -3.48945 0.247528 -1.66901 -2.92241 3.1449 -8.92156 -9.76144 -12.1176 1.31742 17.7134 12.0481 2.53018 -9.32864 0.206405 -0.397819 -3.75956 0.212405 
42.6125 98.2166 12.2794 0.697228 5.69194 -0.838999 0 0 0 -1.98165 8.15744 0.597131 2.17647 12.8807 -0.132629 1.59778 -3.462 -9.63952 -5.82528 -12.3094 -8.46514 -32.9564 7.39183 -15.3046 -29.8455 44.2646 -15.7973 -11.1656 -17.7667 -20.3785 11.0032 0.0922363 0.957614 24.1845 5.12152 13.222 43.4375 -2.60053 52.5703 -47.4642 -16.0303 104.217 -2.8744 0.304928 -12.0363 -4.26507 -7.28654 4.57415 -0.267351 9.91921 3.88242 8.22782 -3.93918 0.283405 -1.6604 -2.67999 3.18022 -8.84489 -10.0026 -12.2166 1.29659 17.9194 12.0237 2.24292 -9.09641 0.178829 -0.415217 -4.2008 0.146507 
42.6881 98.2113 12.3916 0.537011 5.93728 -0.672683 0 0 0 -1.03723 8.14095 0.50356 1.01212 12.2723 0.172726 1.7633 -3.12839 -9.84406 -5.91652 -12.2119 -8.60995 -32.2422 7.35107 -15.5451 -30.1973 45.0152 -15.8894 -11.36 -18.1958 -20.4739 10.8475 0.0875488 0.921656 24.2331 4.93052 12.5812 43.5454 -2.15271 52.5751 -48.282 -16.0973 103.885 -4.00181 0.445216 -12.701 -4.01052 -7.6862 4.8137 -0.535542 10.347 3.62514 8.65768 -4.01747 0.304306 -1.72018 -3.1465 3.21367 -8.75342 -10.115 -12.379 1.39973 17.8112 12.0042 1.569 -8.79152 0.120312 -0.34267 -4.2173 -0.0848803 
42.7866 98.1761 12.5541 0.561743 5.78739 -0.697947 0 0 0 -1.06502 8.22383 0.48089 0.92153 12.1808 0.164507 1.7477 -3.05405 -9.82125 -5.79959 -12.4503 -8.62243 -32.305 7.37767 -15.5825 -30.0735 45.7403 -15.7016 -11.3118 -18.7352 -20.9368 10.9608 0.106106 1.10635 24.7208 5.10377 12.8933 43.167 -2.44259 52.2797 -47.8523 -16.0575 104.055 -3.55615 0.376737 -12.0958 -4.16784 -7.4958 4.73687 -0.430478 10.5017 3.96465 8.61313 -4.41374 0.332312 -1.46615 -2.84696 2.67776 -8.91667 -9.96921 -12.6664 1.35906 18.0984 12.3535 1.66592 -9.09422 0.133038 -0.333802 -4.59658 -0.221517 
42.8812 98.1479 12.6772 0.651898 5.702 -0.97476 0 0 0 -1.16967 8.2529 0.564541 0.821831 12.2742 0.268018 1.81115 -3.63511 -9.81564 -6.05487 -12.1601 -8.54378 -32.3702 7.33447 -15.4405 -30.112 45.0992 -15.8266 -11.1527 -18.0024 -20.6067 10.8502 0.0824832 0.867468 24.6643 5.09226 12.885 43.0852 -2.71744 52.2095 -47.8359 -16.0759 104.078 -3.53086 0.376238 -12.1607 -4.42646 -7.25085 4.53844 -0.207482 10.4176 4.25419 8.3553 -4.55306 0.332336 -1.58183 -2.61875 3.00519 -9.0334 -9.92863 -12.5271 1.2298 18.2656 12.4993 2.14333 -9.40733 0.176597 -0.304108 -4.1597 -0.189452 
42.8826 98.1909 12.8576 0.565587 5.58386 -0.975784 0 0 0 -1.15807 8.19164 0.662884 1.0137 12.3503 0.306046 1.08005 -3.76478 -9.68611 -5.59189 -12.0032 -8.65471 -32.664 7.42183 -15.5195 -30.0963 44.5164 -15.7572 -11.1164 -17.3819 -20.2322 10.4997 0.0608988 0.663531 24.6166 5.17462 13.1683 43.3276 -2.6047 51.9813 -47.9078 -16.2897 104.218 -3.3652 0.371047 -12.5741 -4.19763 -6.93036 4.85985 -0.497988 10.2488 3.9393 8.73135 -4.12528 0.31492 -1.81939 -3.47478 3.37551 -8.86714 -9.64425 -12.1795 1.23312 18.0439 12.1677 1.74579 -9.04989 0.138273 -0.330751 -4.82478 -0.297089 
42.9499 98.1707 12.988 0.546429 5.49105 -1.02677 0 0 0 -1.1568 8.1036 0.580642 0.991274 12.5566 0.216835 0.953321 -4.16525 -9.48131 -5.57484 -11.5665 -8.45254 -32.5453 7.28312 -15.2263 -30.1487 44.6047 -15.9781 -11.2617 -17.799 -20.3073 10.6022 0.052557 0.566015 25.0823 5.44727 13.7922 42.8665 -2.91821 51.7446 -48.2293 -16.3819 104.139 -2.93052 0.321137 -12.5008 -4.19669 -6.68778 4.94636 -0.576523 10.18 4.0157 8.58143 -4.54949 0.341936 -1.6146 -2.81049 3.04124 -8.89289 -9.44501 -12.141 1.20781 18.0361 12.2204 2.2296 -9.28749 0.180997 -0.364847 -4.46028 -0.0845936 
43.0077 98.1477 13.0877 0.41232 5.4082 -0.981928 0 0 0 -1.1896 8.14037 0.642225 1.15658 12.5883 0.225174 1.28567 -4.35166 -9.52601 -5.89561 -11.4593 -8.3592 -32.8118 7.35775 -15.2874 -29.6026 45.3751 -16.0779 -11.4578 -18.6008 -20.6102 10.6702 0.0598313 0.640022 25.0952 5.42272 13.7073 42.8289 -2.93827 51.4888 -47.9851 -16.3959 104.267 -3.22387 0.362587 -12.834 -4.155 -6.51543 4.89453 -0.487025 10.1561 4.32935 9.27553 -4.76151 0.386316 -1.4253 -2.99088 2.54336 -8.86277 -9.29273 -12.3967 1.31217 18.0926 12.4751 1.77223 -9.11508 0.141615 -0.290362 -4.61705 -0.364986 
